<?xml version="1.0" encoding="iso-8859-1"?>
<!-- Uploaded to: SVG Repo, www.svgrepo.com, Generator: SVG Repo Mixer Tools -->
<svg fill="#000000" version="1.1" id="Layer_1" xmlns="http://www.w3.org/2000/svg" xmlns:xlink="http://www.w3.org/1999/xlink" 
	 viewBox="0 0 512 512" xml:space="preserve">
<g>
	<g>
		<path d="M141.758,283.343h-38.864l-66.83-104.46l44.034-69.165c-0.118,1.751-0.199,3.508-0.199,5.28
			c0,20.64,8.038,40.044,22.631,54.637l12.617,12.62L224.425,72.977L211.81,60.359c-14.594-14.595-33.998-22.632-54.638-22.632
			c-7.593,0-15.016,1.096-22.098,3.198L94.169,0.022L42.196,51.996l23.592,23.592L0,178.923l66.804,104.419H35.768
			c-19.578,0-35.506,15.928-35.506,35.507v8.439h30.402v0.001h116.201h30.402v-8.438
			C177.266,299.271,161.337,283.343,141.758,283.343z"/>
	</g>
</g>
<g>
	<g>
		<polygon points="494.278,357.69 481.598,357.69 209.515,357.69 177.266,357.69 30.663,357.69 0.261,357.69 0.261,412.348 
			30.663,412.348 30.663,511.978 105.473,511.978 105.473,412.348 406.789,412.348 406.789,511.978 481.598,511.978 
			481.598,412.348 512,412.348 512,357.69 		"/>
	</g>
</g>
<g>
	<g>
		<rect x="239.921" y="295.869" width="223.96" height="31.415"/>
	</g>
</g>
<g>
	<g>
		<rect x="221.781" y="159.051" width="223.96" height="31.415"/>
	</g>
</g>
<g>
	<g>
		<rect x="210.633" y="220.878" width="253.237" height="44.589"/>
	</g>
</g>
</svg>