<svg class="svg-icon" style="width: 1em; height: 1em;vertical-align: middle;fill: currentColor;overflow: hidden;" viewBox="0 0 1024 1024" version="1.1" xmlns="http://www.w3.org/2000/svg"><path d="M955.2896 359.7312l-460.8-153.6a25.7024 25.7024 0 0 0-16.1792 0l-460.8 153.6a25.6 25.6 0 0 0 0 48.5376L153.6 453.632v135.168c0 6.8096 2.7136 13.312 7.4752 18.1248C165.5808 611.4304 273.408 716.8 486.4 716.8c77.4656 0 149.7088-13.9264 214.784-41.4208a25.6 25.6 0 0 0-19.9168-47.1552c-58.7264 24.832-124.2624 37.376-194.816 37.376-99.584 0-172.8512-25.8048-216.7808-47.4112a338.0736 338.0736 0 0 1-64.8192-40.9088V470.7328l273.5104 91.1872a25.7536 25.7536 0 0 0 16.1792 0l273.5104-91.1872v45.6704c-29.7984 10.5472-51.2 39.0144-51.2 72.3968 0 31.2832 18.7904 58.2144 45.6704 70.1952l-44.9024 179.6096a25.6 25.6 0 0 0 24.832 31.7952h102.4a25.6 25.6 0 0 0 24.832-31.7952l-44.9024-179.6096c26.88-11.9808 45.6704-38.912 45.6704-70.1952 0-33.3824-21.4016-61.8496-51.2-72.3968V453.632l136.0896-45.3632a25.6 25.6 0 0 0 0-48.5376zM793.6 563.2a25.6 25.6 0 1 1 0 51.2 25.6 25.6 0 0 1 0-51.2z m-18.432 256l18.432-73.6256 18.432 73.6256h-36.8128z m16.384-410.3168l-300.9024-50.176a25.6 25.6 0 1 0-8.3968 50.4832l205.5168 34.2528-201.3184 67.1232-379.8528-126.6176 379.8528-126.6176 379.8528 126.6176-74.7008 24.8832z" fill="" /></svg>